<?xml version="1.0" encoding="UTF-8" standalone="no"?><!DOCTYPE svg PUBLIC "-//W3C//DTD SVG 1.1//EN" "http://www.w3.org/Graphics/SVG/1.1/DTD/svg11.dtd"><svg width="100%" height="100%" viewBox="0 0 16 16" version="1.1" xmlns="http://www.w3.org/2000/svg" xmlns:xlink="http://www.w3.org/1999/xlink" xml:space="preserve" xmlns:serif="http://www.serif.com/" style="fill-rule:evenodd;clip-rule:evenodd;stroke-linejoin:round;stroke-miterlimit:2;"><path d="M11.52,2.541l0,6.437c0,0.343 -0.278,0.621 -0.621,0.621l-6.437,0c-0.343,0 -0.621,-0.278 -0.621,-0.621l0,-6.437c0,-0.343 0.278,-0.621 0.621,-0.621l6.437,0c0.343,0 0.621,0.278 0.621,0.621Zm-6.24,0.099c-0.397,0 -0.72,0.323 -0.72,0.72c0,0.397 0.323,0.72 0.72,0.72c0.397,0 0.72,-0.323 0.72,-0.72c0,-0.397 -0.323,-0.72 -0.72,-0.72Zm4.8,4.8c-0.397,0 -0.72,0.323 -0.72,0.72c0,0.397 0.323,0.72 0.72,0.72c0.397,0 0.72,-0.323 0.72,-0.72c0,-0.397 -0.323,-0.72 -0.72,-0.72Zm-4.8,0c-0.397,0 -0.72,0.323 -0.72,0.72c0,0.397 0.323,0.72 0.72,0.72c0.397,0 0.72,-0.323 0.72,-0.72c0,-0.397 -0.323,-0.72 -0.72,-0.72Zm4.8,-4.8c-0.397,0 -0.72,0.323 -0.72,0.72c0,0.397 0.323,0.72 0.72,0.72c0.397,0 0.72,-0.323 0.72,-0.72c0,-0.397 -0.323,-0.72 -0.72,-0.72Zm-2.4,2.4c-0.397,0 -0.72,0.323 -0.72,0.72c0,0.397 0.323,0.72 0.72,0.72c0.397,0 0.72,-0.323 0.72,-0.72c0,-0.397 -0.323,-0.72 -0.72,-0.72Z" style="fill:#fff;"/><path d="M9.004,9.36l0.476,0l1.32,3.6l0,0.48l-0.48,0l-1.316,-4.08Z" style="fill:#fff;"/><path d="M5.88,9.36l0.476,0l-1.316,4.08l-0.48,0l0,-0.48l1.32,-3.6Z" style="fill:#fff;"/><path d="M3.849,12.48l7.679,0l0,-0.24l-0.256,-0.48l-7.2,0l-0.24,0.48l0.017,0.24Z" style="fill:#fff;"/><path d="M4.32,11.52l6.72,0l0,-0.24l-0.24,-0.48l-6.24,0l-0.24,0.48l0,0.24Z" style="fill:#fff;"/><path d="M4.8,10.56l5.76,0l0,-0.24l-0.24,-0.48l-5.28,0c0,0 -0.2,0.36 -0.24,0.48c-0.019,0.058 0,0.24 0,0.24Z" style="fill:#fff;"/></svg>