<?xml version="1.0" encoding="UTF-8" standalone="no"?><!DOCTYPE svg PUBLIC "-//W3C//DTD SVG 1.1//EN" "http://www.w3.org/Graphics/SVG/1.1/DTD/svg11.dtd"><svg width="100%" height="100%" viewBox="0 0 67 67" version="1.1" xmlns="http://www.w3.org/2000/svg" xmlns:xlink="http://www.w3.org/1999/xlink" xml:space="preserve" xmlns:serif="http://www.serif.com/" style="fill-rule:evenodd;clip-rule:evenodd;stroke-linejoin:round;stroke-miterlimit:2;"><g><path d="M54.889,4.486l0,36.134c0,1.925 -1.561,3.486 -3.486,3.486l-36.134,0c-1.925,0 -3.486,-1.561 -3.486,-3.486l0,-36.134c0,-1.925 1.561,-3.486 3.486,-3.486l36.134,0c1.925,0 3.486,1.561 3.486,3.486Zm-35.028,0.556c-2.229,0 -4.042,1.813 -4.042,4.042c0,2.229 1.813,4.042 4.042,4.042c2.229,0 4.042,-1.813 4.042,-4.042c0,-2.229 -1.813,-4.042 -4.042,-4.042Zm26.944,26.944c-2.229,0 -4.042,1.813 -4.042,4.042c0,2.229 1.813,4.042 4.042,4.042c2.229,0 4.042,-1.813 4.042,-4.042c0,-2.229 -1.813,-4.042 -4.042,-4.042Zm-26.944,-0c-2.229,0 -4.042,1.813 -4.042,4.042c0,2.229 1.813,4.042 4.042,4.042c2.229,0 4.042,-1.813 4.042,-4.042c0,-2.229 -1.813,-4.042 -4.042,-4.042Zm26.944,-26.944c-2.229,0 -4.042,1.813 -4.042,4.042c0,2.229 1.813,4.042 4.042,4.042c2.229,0 4.042,-1.813 4.042,-4.042c0,-2.229 -1.813,-4.042 -4.042,-4.042Zm-13.472,13.472c-2.229,0 -4.042,1.813 -4.042,4.042c0,2.229 1.813,4.042 4.042,4.042c2.229,0 4.042,-1.813 4.042,-4.042c0,-2.229 -1.813,-4.042 -4.042,-4.042Z" style="fill:#fff;"/><path d="M40.766,42.764l2.672,0l7.41,20.208l0,2.694l-2.694,0l-7.387,-22.903Z" style="fill:#fff;"/><path d="M23.229,42.764l2.672,0l-7.387,22.903l-2.694,0l0,-2.694l7.41,-20.208Z" style="fill:#fff;"/><path d="M11.828,60.278l43.105,0l0,-1.347l-1.437,-2.694l-40.417,0l-1.347,2.694l0.095,1.347Z" style="fill:#fff;"/><path d="M14.472,54.889l37.722,0l0,-1.347l-1.347,-2.694l-35.028,0l-1.347,2.694l0,1.347Z" style="fill:#fff;"/><path d="M17.167,49.5l32.333,0l0,-1.347l-1.347,-2.694l-29.639,0c0,0 -1.123,2.021 -1.347,2.694c-0.107,0.326 0,1.347 0,1.347Z" style="fill:#fff;"/></g></svg>